# xmcd
#
# Track frame offsets: 
#        187
#        22600
#        45195
#        64310
#        84925
#        104862
#
# Disc length: 1703 seconds
#
# Revision: 0
# Processed by: cddbd v1.4PL0 Copyright (c) Steve Scherf et al.
# Submitted via: ExactAudioCopy v0.90b4
#
DISCID=3e06a506
DTITLE=SWV - ANYTHING and REMIXES
DYEAR=1994
DGENRE=R&B
TTITLE0=ANYTHING (Old School Radio Version) Featuring WU-TANG CLAN
TTITLE1=RIGHT HERE (Human Nature Duet) (Demolition 12" Mix)
TTITLE2=I'M SO INTO YOU (Radio Remix/With Rap)
TTITLE3=WEAK (Down Mix)
TTITLE4=DOWNTOWN (Wet Radio)
TTITLE5=YOU'RE ALWAYS ON MY MIND (Radio Version With Piano) 
EXTD=
EXTT0=
EXTT1=
EXTT2=
EXTT3=
EXTT4=
EXTT5=
PLAYORDER=
